# xmcd
#
# Track frame offsets:
#	150
#	29447
#	51685
#	75195
#	104542
#	122417
#	150912
#	172465
#	199275
#	220530
#
# Disc length: 3259 seconds
#
# Revision: 1
# Processed by: cddbd v1.5.2PL0 Copyright (c) Steve Scherf et al.
# Submitted via: EZCDAudioConverter 8.0.2.1
#
DISCID=840cb90a
DTITLE=Vũ Linh,Tài Linh, Đình Văn - Về Đâu Cánh Chim Biển
DYEAR=1998
DGENRE=
TTITLE0=Vũ Linh - Giọt lệ tình
TTITLE1=Tài Linh, Đình Văn - Mối duyên quê
TTITLE2=Tài Linh - Chờ người
TTITLE3=Vũ Linh,Tài Linh - Chuyện hẹn hò
TTITLE4=Đình Văn - Ngày em sang ngang
TTITLE5=Tài Linh - Về Đâu Cánh Chim Biển
TTITLE6=Tài Linh, Đình Văn - Gaingw câu
TTITLE7=Vũ Linh - Tiễn biệt
TTITLE8=Vũ Linh,Tài Linh - Ai cho tôi tình yêu
TTITLE9=Đình Văn - Ước thầm
EXTD=
EXTT0=
EXTT1=
EXTT2=
EXTT3=
EXTT4=
EXTT5=
EXTT6=
EXTT7=
EXTT8=
EXTT9=
PLAYORDER=
